<?xml version="1.0" standalone="no"?>
<!DOCTYPE svg PUBLIC "-//W3C//DTD SVG 20010904//EN"
 "http://www.w3.org/TR/2001/REC-SVG-20010904/DTD/svg10.dtd">
<svg version="1.0" xmlns="http://www.w3.org/2000/svg"
 width="2608.000000pt" height="2608.000000pt" viewBox="0 0 2608.000000 2608.000000"
 preserveAspectRatio="xMidYMid meet">
<metadata>
Created by potrace 1.14, written by Peter Selinger 2001-2017
</metadata>
<g transform="translate(0.000000,2608.000000) scale(0.100000,-0.100000)"
fill="#000000" stroke="none">
<path d="M0 13040 l0 -13040 13040 0 13040 0 0 13040 0 13040 -13040 0 -13040
0 0 -13040z m10160 10020 c0 -15 -8 -35 -19 -44 -17 -16 -20 -16 -35 -1 -21
21 -21 63 1 87 15 17 17 17 35 2 10 -10 18 -29 18 -44z m5830 -24 c0 -23 -7
-51 -15 -62 -15 -19 -15 -18 -36 6 -17 19 -20 34 -16 67 2 24 11 50 18 59 12
15 15 14 31 -6 11 -14 18 -39 18 -64z m-5846 -358 c22 -30 20 -91 -2 -118
l-19 -23 -16 24 c-20 27 -22 77 -5 114 14 31 22 31 42 3z m5836 3 c16 -31 12
-96 -8 -121 -16 -20 -19 -20 -31 -6 -22 26 -26 92 -7 121 20 30 32 32 46 6z
m-5832 -466 c15 -32 15 -65 2 -99 -20 -53 -60 -20 -60 49 0 69 36 99 58 50z
m5832 6 c22 -42 6 -131 -24 -131 -32 0 -47 90 -20 128 19 27 30 28 44 3z
m-7129 -406 c-14 -365 -41 -937 -81 -1714 -17 -322 -30 -611 -30 -644 0 -55
21 -106 326 -815 335 -776 491 -1132 584 -1330 l53 -112 51 -16 c85 -25 794
-218 1081 -294 645 -170 913 -256 958 -308 8 -9 40 -78 72 -152 108 -255 260
-550 283 -550 5 0 16 24 25 53 89 305 201 704 277 988 l93 346 -257 462 c-368
663 -495 871 -531 871 -22 0 -361 -602 -538 -957 -127 -254 -166 -354 -182
-470 -15 -108 -35 -139 -96 -152 -69 -15 -132 17 -166 83 -21 40 -12 110 18
143 29 31 101 65 123 57 11 -4 28 14 60 64 75 117 215 376 254 469 34 81 37
95 36 181 l-1 93 23 -22 c47 -44 83 -13 186 161 84 140 238 449 238 475 0 42
-125 280 -563 1076 -254 463 -260 474 -243 488 31 26 182 32 936 38 l785 6
170 310 c94 170 171 312 172 316 1 3 -32 32 -73 65 -95 74 -134 137 -134 216
0 97 65 203 159 258 61 36 145 37 210 3 59 -31 147 -120 171 -173 44 -96 19
-167 -105 -297 l-83 -87 45 -79 c25 -44 97 -177 160 -297 l115 -216 122 -6
c66 -3 443 -10 836 -16 393 -7 737 -14 763 -17 l48 -5 -57 -107 c-31 -58 -146
-266 -254 -461 -395 -712 -530 -970 -530 -1018 0 -31 98 -229 200 -407 127
-222 170 -265 224 -229 15 9 28 15 31 13 2 -2 -1 -26 -7 -52 -8 -37 -6 -64 6
-120 32 -141 161 -402 270 -541 53 -69 75 -86 135 -106 154 -51 99 -288 -62
-267 -47 6 -83 30 -115 78 -21 29 -23 42 -19 94 5 50 1 72 -24 136 -64 165
-338 696 -527 1019 -110 188 -160 260 -183 260 -27 0 -154 -216 -444 -755
-151 -281 -265 -484 -276 -491 -17 -10 -9 -136 17 -263 44 -218 163 -675 266
-1021 44 -149 53 -170 71 -170 29 0 104 142 264 495 57 127 109 235 116 241 7
7 314 91 682 189 662 174 1189 321 1315 367 l65 23 57 115 c84 169 309 678
631 1430 l285 665 -38 690 c-59 1064 -71 1352 -76 1720 l-4 340 75 -220 c139
-404 1195 -3693 1195 -3721 0 -7 -41 -106 -91 -221 -50 -114 -176 -404 -279
-643 -501 -1160 -838 -1927 -923 -2100 -29 -59 -37 -68 -90 -93 -81 -39 -605
-211 -1087 -357 -223 -68 -409 -127 -414 -131 -9 -8 -39 -365 -66 -801 l-13
-197 -491 -295 c-270 -162 -557 -336 -638 -385 l-148 -91 0 128 c1 171 19 312
40 312 18 0 29 -37 35 -116 11 -142 15 -164 32 -164 9 0 50 19 92 41 64 36
964 573 997 596 13 9 42 318 50 533 6 133 -6 323 -19 337 -3 3 -21 -8 -40 -23
-75 -63 -1622 -1407 -1769 -1537 l-156 -138 23 -52 c12 -29 51 -113 85 -187
129 -279 196 -443 215 -525 13 -56 13 -63 -5 -98 -30 -56 -25 -114 16 -220 20
-51 37 -109 37 -131 2 -35 -4 -44 -60 -95 -34 -31 -156 -115 -271 -188 l-210
-131 -26 73 c-36 100 -34 133 7 172 69 67 224 149 243 130 12 -11 -36 -66
-116 -131 -84 -70 -103 -106 -56 -106 31 0 133 54 247 131 117 78 156 114 164
148 5 25 -16 101 -62 219 -9 23 -14 20 -149 -86 -76 -60 -208 -168 -293 -240
-85 -71 -178 -144 -208 -162 -49 -30 -56 -32 -79 -19 -44 23 -231 169 -454
352 -118 97 -217 177 -220 177 -9 0 -80 -223 -80 -251 0 -14 10 -35 23 -46 25
-23 217 -138 306 -182 142 -72 166 -10 31 79 -42 28 -110 91 -110 102 0 30
153 -46 217 -108 39 -37 43 -45 43 -90 0 -57 -32 -134 -55 -134 -26 0 -89 36
-312 177 -142 91 -213 142 -217 156 -6 24 -3 37 30 156 29 100 31 191 7 232
-32 53 -9 119 189 549 52 113 104 231 116 262 l21 57 -157 144 c-386 353
-1769 1554 -1802 1565 -6 2 -10 -155 -10 -417 l0 -421 23 -14 c175 -110 905
-551 974 -588 73 -39 100 -49 130 -46 l38 3 6 90 c9 144 28 194 46 128 21 -75
2 -343 -24 -343 -23 0 -526 282 -853 478 -256 154 -367 228 -374 249 -7 25
-34 409 -50 716 -7 142 -17 261 -22 266 -5 4 -97 34 -204 65 -107 32 -280 85
-385 118 -104 32 -345 106 -535 163 -190 57 -370 112 -400 122 l-55 18 -178
415 c-98 228 -271 629 -384 890 -255 589 -622 1451 -693 1626 l-53 131 46 154
c164 547 793 2510 1075 3354 115 344 148 432 150 405 2 -19 -1 -170 -7 -335z
m1297 -47 c17 -17 15 -53 -4 -89 -22 -44 -48 -35 -52 18 -5 66 24 103 56 71z
m5832 -7 c22 -42 6 -131 -24 -131 -16 0 -36 42 -36 75 0 33 20 75 36 75 7 0
18 -9 24 -19z m10 -475 c0 -23 -7 -51 -15 -62 -15 -19 -15 -18 -36 6 -17 19
-20 34 -16 67 2 24 11 50 18 59 12 15 15 14 31 -6 11 -14 18 -39 18 -64z
m-5834 -7 c4 -23 0 -41 -10 -54 -16 -20 -16 -20 -36 4 -22 26 -27 90 -8 109
17 17 47 -15 54 -59z m4 -449 c0 -22 -8 -47 -18 -60 l-19 -23 -16 24 c-10 13
-17 39 -17 59 0 20 7 46 17 59 l16 24 19 -23 c10 -13 18 -38 18 -60z m5814 64
c22 -22 21 -96 -2 -124 -17 -21 -19 -21 -32 -4 -19 22 -19 106 -1 127 16 21
16 21 35 1z m-5823 -465 c22 -43 -17 -133 -48 -108 -26 23 -8 129 23 129 7 0
18 -10 25 -21z m5829 2 c23 -44 6 -131 -26 -131 -32 0 -45 90 -18 128 19 27
30 28 44 3z m-5780 -433 c31 -50 22 -108 -15 -108 -11 0 -45 92 -45 123 0 30
39 19 60 -15z m5746 17 c3 -8 -3 -29 -14 -47 -22 -35 -80 -84 -89 -75 -10 11
29 107 50 122 27 19 46 19 53 0z m-5528 -415 c26 -39 29 -78 6 -87 -21 -8 -51
30 -60 74 -12 62 16 69 54 13z m5282 13 c0 -55 -72 -136 -86 -98 -12 30 43
125 72 125 9 0 14 -10 14 -27z m-5073 -375 c78 -84 68 -152 -12 -73 -35 36
-52 75 -40 94 10 17 19 13 52 -21z m4861 -19 c4 -22 -45 -79 -69 -79 -27 0
-24 32 7 70 28 32 57 36 62 9z m-4613 -399 c8 -16 15 -36 15 -45 0 -37 -60 -3
-80 46 -11 26 -11 32 0 39 19 12 47 -5 65 -40z m4389 44 c24 -9 19 -45 -11
-76 -28 -29 -68 -37 -76 -15 -6 17 19 63 45 81 26 19 22 18 42 10z m-4186
-410 c28 -33 50 -99 38 -111 -8 -9 -96 79 -102 103 -14 54 23 58 64 8z m3952
-23 c0 -26 -38 -81 -56 -81 -14 0 -16 7 -11 40 3 23 13 53 22 67 17 25 18 26
31 8 8 -10 14 -26 14 -34z m-7700 -1539 l19 -714 264 -446 264 -447 319 -6
c175 -4 331 -10 347 -14 96 -26 -70 -54 -323 -56 -146 -1 -254 -9 -266 -21 -8
-9 78 -171 268 -503 223 -390 325 -582 369 -692 5 -13 4 -25 -1 -28 -18 -11
-48 38 -780 1305 -243 421 -445 769 -450 773 -9 10 -17 -134 -25 -463 -9 -335
-25 -445 -65 -445 -42 0 -56 178 -65 805 -6 505 -16 903 -21 897 -2 -2 -76
-266 -163 -588 -88 -321 -185 -674 -215 -783 l-56 -199 708 -711 707 -711 -45
-7 c-25 -3 -100 -7 -167 -7 -97 -1 -123 -4 -123 -15 0 -30 178 -84 1245 -375
956 -260 1269 -341 1281 -328 2 2 -40 51 -93 108 -54 57 -108 118 -119 134
-47 67 -48 79 -54 514 l-5 414 -175 47 c-96 26 -362 98 -590 160 -428 116
-722 206 -762 234 -22 16 -22 16 19 16 69 0 920 -221 1398 -363 l180 -53 3
-471 2 -471 113 -108 c184 -176 266 -220 569 -308 191 -56 278 -76 329 -76 56
0 57 -6 -45 184 -14 27 -26 65 -26 84 0 35 0 35 20 17 29 -27 95 -131 305
-490 207 -352 276 -459 300 -469 19 -7 22 1 30 84 7 74 27 124 39 95 19 -50
29 -330 35 -970 l6 -710 79 132 c44 73 100 156 126 185 42 46 49 51 64 39 21
-18 21 -22 -9 -65 -32 -47 -31 -82 3 -181 35 -100 214 -475 225 -472 9 3 98
207 173 399 67 170 94 183 94 44 0 -76 2 -86 36 -141 46 -77 79 -117 259 -314
l150 -164 113 119 c164 172 278 310 313 379 28 56 30 65 23 133 -7 74 0 87 28
55 25 -29 52 -89 108 -238 62 -169 100 -255 111 -255 24 0 186 310 229 440 30
87 31 100 25 177 -4 54 -3 83 3 83 22 0 91 -94 162 -219 41 -71 76 -128 78
-126 2 2 10 250 18 552 13 539 28 915 41 1043 l7 65 8 -40 c5 -22 7 -58 4 -80
-7 -47 5 -100 23 -100 17 0 103 138 309 496 241 420 316 538 340 539 20 0 15
-18 -37 -129 -54 -116 -74 -178 -61 -186 18 -11 274 50 450 107 182 59 232 92
448 296 l142 135 -1 391 c-1 215 2 405 6 421 21 88 24 93 78 113 118 44 960
273 1297 353 91 21 183 39 205 39 40 -1 40 -1 15 -15 -69 -39 -394 -135 -900
-265 -513 -131 -590 -162 -640 -250 l-25 -45 -6 -380 c-5 -283 -10 -390 -20
-420 -8 -24 -44 -72 -91 -122 -78 -82 -94 -113 -60 -113 47 0 902 221 1737
450 595 163 705 198 705 225 0 14 -41 20 -233 31 l-107 6 702 710 c387 391
704 718 706 728 9 50 -226 939 -358 1360 -42 131 -54 159 -66 147 -17 -16 -25
-258 -32 -924 -5 -548 -10 -715 -19 -725 -39 -38 -51 55 -63 472 -5 190 -12
355 -16 368 -10 33 -24 24 -72 -49 -115 -171 -774 -1289 -1043 -1769 -64 -113
-111 -186 -122 -188 -10 -2 -17 3 -17 12 0 25 167 346 327 626 199 350 323
573 323 581 0 11 -101 19 -260 19 -203 0 -360 17 -360 40 0 17 68 23 370 29
l315 6 79 140 c43 77 164 288 268 468 l189 329 19 681 c11 375 21 701 22 724
2 31 82 -252 307 -1090 168 -623 315 -1169 327 -1214 l22 -81 -625 -631 c-344
-348 -624 -633 -622 -635 2 -2 218 -11 479 -21 261 -9 495 -19 519 -23 48 -8
229 42 -2434 -672 -1444 -388 -1935 -526 -1983 -557 -33 -20 -127 -168 -296
-463 l-146 -255 -1 -710 c0 -390 -4 -732 -7 -760 l-7 -50 -51 80 c-28 44 -80
131 -115 192 -35 62 -66 113 -69 113 -3 0 -81 -151 -175 -335 -93 -184 -172
-335 -175 -335 -3 0 -22 51 -43 113 -45 130 -122 297 -139 297 -18 0 -189
-172 -345 -348 -80 -89 -149 -162 -154 -162 -4 0 -124 126 -265 280 -142 154
-259 279 -260 277 -1 -1 -39 -105 -83 -231 -45 -126 -83 -231 -85 -234 -3 -2
-54 94 -115 215 -122 243 -192 369 -220 397 -18 18 -20 17 -62 -37 -24 -31
-73 -108 -109 -171 l-65 -115 -3 87 c-1 48 -11 400 -21 782 l-19 695 -202 340
c-111 187 -207 345 -213 352 -7 6 -232 70 -502 142 -269 71 -840 225 -1267
340 -428 116 -1083 292 -1455 392 -972 259 -1174 316 -1187 338 -10 16 122 21
555 21 242 0 439 3 439 7 0 5 -284 292 -632 640 l-632 632 11 43 c6 23 157
578 335 1234 255 940 324 1182 326 1145 1 -25 11 -367 22 -759z m1420 -3632
c21 -11 46 -30 54 -42 20 -28 21 -100 1 -138 -17 -33 -61 -70 -83 -70 -60 0
-148 -131 -410 -610 -109 -201 -272 -495 -361 -654 -88 -158 -161 -294 -161
-301 0 -13 110 -183 1783 -2765 1515 -2337 1616 -2490 1627 -2469 14 25 159
492 189 610 38 146 61 279 61 348 0 145 83 229 184 187 93 -39 85 -187 -13
-265 -66 -52 -126 -192 -262 -605 -66 -198 -119 -364 -119 -368 0 -9 438 -689
718 -1113 209 -318 392 -585 401 -585 8 0 -6 -24 296 500 147 256 293 507 323
559 l54 93 85 -143 c47 -79 162 -276 255 -438 254 -440 335 -570 353 -570 6 0
101 140 211 312 111 172 361 557 555 855 l352 544 -96 291 c-154 465 -229 632
-302 677 -41 25 -60 70 -57 135 4 89 50 122 160 113 80 -7 84 -13 93 -183 5
-86 20 -199 35 -273 61 -298 173 -612 218 -612 18 0 61 54 189 237 133 189
194 281 962 1468 342 528 822 1268 1066 1645 245 377 553 852 684 1055 131
204 294 455 362 558 68 104 123 192 123 197 0 5 -100 190 -221 412 -464 844
-631 1113 -721 1159 -88 45 -116 183 -48 244 31 28 102 31 144 6 40 -25 76
-91 76 -140 0 -92 147 -406 440 -941 101 -184 230 -426 287 -538 l104 -202
-28 -48 c-114 -196 -460 -738 -1006 -1577 -237 -363 -645 -991 -907 -1395
-262 -404 -703 -1084 -980 -1510 -277 -426 -505 -784 -507 -795 -4 -20 202
-643 254 -769 16 -38 34 -71 40 -73 28 -10 189 189 462 572 422 590 441 627
373 730 -18 27 -31 54 -29 59 7 22 41 17 83 -14 68 -49 86 -42 167 65 107 143
108 176 8 280 -61 63 -106 123 -99 131 7 7 76 -46 156 -121 83 -77 74 -79 155
28 83 110 91 152 62 332 -28 171 -21 270 19 297 6 4 34 14 62 23 28 8 57 22
64 30 7 9 16 54 20 101 8 101 25 125 105 149 29 8 63 23 76 34 22 17 23 25 21
109 -3 103 4 115 68 132 22 5 58 15 80 21 56 14 68 41 52 118 -18 85 -15 108
12 126 13 9 86 25 162 36 230 33 281 54 368 150 95 106 246 337 246 376 0 15
-17 39 -46 66 l-45 42 23 22 c26 25 279 153 301 153 38 0 33 -328 -6 -368 -14
-13 -21 -11 -69 16 -32 19 -62 29 -73 26 -22 -6 -240 -312 -282 -396 -20 -40
-28 -72 -31 -133 -4 -69 16 -326 34 -432 l5 -33 -93 0 c-51 0 -99 -4 -107 -9
-14 -9 -13 -55 5 -167 8 -53 -15 -79 -77 -89 -24 -4 -63 -15 -85 -25 -50 -22
-59 -48 -44 -131 6 -33 8 -68 5 -79 -7 -21 -59 -44 -124 -55 -25 -4 -54 -17
-67 -30 -22 -22 -23 -28 -17 -118 l6 -95 -29 -15 c-16 -8 -87 -25 -158 -37
-200 -34 -295 -72 -363 -142 -85 -89 -68 -191 56 -332 34 -38 61 -73 61 -78 0
-19 -60 25 -154 111 -55 50 -102 91 -105 91 -10 -1 -149 -212 -161 -243 -12
-34 -5 -69 26 -123 25 -42 31 -79 15 -88 -5 -3 -28 8 -52 24 -24 16 -52 30
-61 30 -47 0 -145 -128 -628 -814 l-323 -459 43 -136 c79 -252 121 -405 137
-505 l17 -98 -25 -19 c-45 -35 -393 -288 -620 -452 -197 -142 -761 -553 -1205
-879 -170 -125 -429 -304 -495 -342 l-46 -26 -104 72 c-510 350 -1617 1140
-2061 1471 -155 115 -228 175 -228 187 0 53 48 252 114 474 l75 249 -258 366
c-142 201 -344 489 -448 640 -104 151 -197 279 -206 285 -12 8 -28 2 -70 -27
-29 -20 -61 -37 -70 -37 -25 0 -21 38 8 85 48 78 33 130 -85 285 l-62 81 -94
-90 c-88 -85 -154 -133 -154 -113 0 5 27 40 61 78 128 145 142 250 46 342 -65
63 -165 100 -351 132 -179 31 -196 45 -196 160 0 77 -28 113 -107 136 -56 16
-93 43 -93 68 0 7 5 38 10 67 15 80 6 108 -44 129 -22 10 -61 21 -85 25 -62
10 -85 36 -77 89 18 112 19 158 5 167 -8 5 -56 9 -107 9 l-93 0 5 33 c18 106
38 363 34 432 -4 68 -10 90 -41 150 -49 92 -259 379 -280 383 -10 2 -38 -10
-64 -27 -58 -38 -68 -39 -81 -1 -29 83 -26 350 4 350 23 0 275 -128 302 -153
l23 -22 -45 -42 c-29 -27 -46 -51 -46 -66 0 -39 151 -270 246 -376 87 -96 138
-117 368 -150 80 -12 149 -27 164 -37 26 -17 26 -13 7 -154 -9 -62 5 -76 95
-98 127 -32 123 -27 115 -142 -7 -95 -6 -98 17 -114 12 -9 46 -23 74 -32 79
-23 95 -46 103 -149 8 -110 22 -125 116 -125 44 0 66 -5 75 -15 18 -21 8 -142
-26 -324 -23 -124 -25 -150 -14 -185 13 -47 60 -120 118 -186 l39 -44 74 68
c81 75 150 129 157 122 7 -8 -38 -67 -103 -136 -75 -79 -85 -110 -56 -176 26
-57 104 -168 133 -189 31 -21 39 -20 98 21 49 34 80 40 87 19 2 -6 -13 -35
-33 -65 -40 -62 -41 -89 -3 -168 66 -135 623 -912 777 -1082 34 -38 43 -43 58
-34 25 15 82 156 171 419 123 364 127 402 60 510 -48 78 -59 95 -1654 2550
-1662 2560 -1693 2608 -1693 2655 0 69 79 232 370 760 197 357 343 643 393
768 32 79 37 104 37 171 0 91 12 134 43 149 37 18 114 14 157 -8z m1230 -336
c593 -157 932 -256 1063 -309 32 -13 139 -183 389 -618 l148 -259 0 -291 c0
-305 -14 -611 -29 -662 l-8 -30 -12 28 c-17 42 -31 345 -31 674 l0 293 -237
415 c-131 228 -242 415 -248 415 -5 0 -255 65 -555 145 -565 150 -866 223
-877 211 -14 -14 21 -106 109 -293 l92 -193 240 0 241 0 532 -532 533 -533 0
-645 0 -645 182 -182 c101 -101 187 -183 192 -183 4 0 68 58 141 129 119 114
214 191 236 191 9 0 27 -55 138 -438 43 -150 82 -276 85 -280 7 -6 44 28 219
198 93 91 97 93 97 65 0 -17 -9 -153 -21 -304 -22 -289 -20 -341 10 -341 26 0
64 46 179 217 55 81 114 161 131 177 l31 30 0 -42 c0 -189 -344 -3097 -370
-3125 -23 -25 -107 305 -294 1152 l-133 604 -404 525 c-485 631 -780 1009
-901 1154 -81 98 -92 107 -116 102 -44 -10 -193 -75 -427 -187 -224 -107 -324
-147 -370 -147 -74 0 20 69 281 208 149 79 531 264 570 276 23 7 -11 50 653
-819 356 -466 558 -725 566 -725 2 0 10 -3 19 -6 13 -5 16 2 16 45 0 61 -45
295 -106 553 -73 310 -87 425 -46 375 20 -24 135 -495 302 -1242 187 -834 350
-1518 364 -1533 17 -16 29 26 37 129 11 122 38 372 148 1339 86 751 123 1102
116 1108 -9 9 -33 -19 -115 -136 -46 -64 -115 -159 -154 -211 -62 -84 -70 -92
-78 -72 -8 23 4 301 25 579 7 89 10 162 7 162 -3 0 -32 -27 -65 -61 -77 -79
-172 -159 -189 -159 -8 0 -30 55 -55 138 -156 504 -170 542 -199 542 -28 0
-89 -47 -214 -167 l-112 -106 -170 174 c-94 96 -391 410 -661 699 -716 768
-840 892 -946 939 -36 17 -66 21 -168 21 l-124 0 235 -239 c263 -266 396 -414
405 -450 8 -32 -35 -142 -190 -481 -168 -369 -268 -602 -262 -609 3 -2 126
115 273 260 147 146 295 289 330 317 68 56 135 95 146 85 21 -21 -14 -76 -141
-219 -196 -220 -927 -944 -940 -930 -10 9 190 467 515 1181 l159 350 -87 95
c-150 163 -543 543 -600 581 -30 20 -73 42 -95 48 -51 14 -229 14 -292 1 -46
-10 -49 -13 -68 -63 -16 -41 -29 -57 -66 -79 -133 -83 -320 -45 -382 76 -79
153 40 356 209 356 100 0 205 -60 242 -138 11 -23 27 -39 47 -45 17 -6 226
-13 466 -16 l436 -6 614 -639 614 -639 3 549 2 549 -492 492 -493 493 -372 0
c-205 0 -373 -4 -373 -8 0 -4 16 -24 36 -43 101 -96 357 -375 380 -415 50 -84
-7 -86 -106 -3 -76 63 -581 551 -576 556 2 3 72 8 156 13 164 10 259 25 287
45 16 12 16 16 0 69 -10 31 -54 128 -98 217 -80 162 -124 273 -114 289 3 4 26
2 52 -6 27 -8 244 -67 483 -130z m6650 141 c0 -17 -58 -153 -152 -354 -59
-129 -107 -235 -106 -236 2 -2 93 -10 203 -19 110 -9 219 -19 242 -22 l43 -5
-234 -230 c-250 -245 -354 -337 -416 -369 -51 -26 -59 -12 -26 45 23 39 280
320 380 414 20 19 36 39 36 43 0 4 -168 8 -373 8 l-372 0 -496 -497 -496 -498
13 -500 c7 -275 13 -515 13 -533 1 -19 5 -32 9 -30 9 3 403 424 886 946 l280
302 180 1 c325 1 679 16 719 30 21 7 66 39 100 71 144 134 257 142 382 27 67
-62 88 -108 83 -181 -10 -142 -174 -252 -324 -219 -57 13 -86 36 -180 143 -40
45 -91 58 -227 58 -127 0 -180 -15 -255 -71 -124 -93 -632 -614 -632 -647 0
-23 77 -201 323 -742 229 -506 325 -722 358 -804 l20 -49 -58 51 c-102 88
-610 590 -784 775 -241 255 -326 364 -300 390 7 7 18 5 35 -6 33 -22 173 -154
396 -372 207 -203 297 -285 312 -285 26 0 -47 181 -273 670 -98 214 -179 393
-179 397 0 4 154 162 343 351 l342 343 -140 -3 c-162 -3 -176 -8 -282 -97 -72
-62 -834 -860 -1532 -1609 -63 -67 -119 -122 -125 -122 -6 0 -54 43 -106 96
-112 113 -206 194 -225 194 -16 0 -57 -103 -110 -275 -116 -380 -125 -405
-143 -405 -20 1 -73 40 -176 134 -42 38 -78 67 -80 65 -3 -2 4 -128 15 -279
23 -337 25 -487 6 -472 -7 6 -72 96 -145 200 -72 103 -143 199 -158 212 l-27
25 7 -102 c9 -153 55 -579 166 -1545 55 -477 100 -883 100 -902 0 -45 17 -55
31 -19 20 52 118 465 248 1048 266 1186 375 1653 396 1695 l13 25 7 -28 c9
-35 -13 -174 -66 -432 -22 -104 -56 -264 -75 -355 -35 -171 -40 -214 -25 -208
19 6 575 715 1025 1306 168 221 212 272 231 272 44 0 168 -51 380 -155 337
-166 517 -280 502 -318 -16 -43 -88 -16 -504 187 -175 86 -326 156 -336 156
-19 0 -172 -189 -482 -595 -386 -505 -587 -767 -701 -911 -63 -80 -126 -164
-140 -186 -65 -103 -125 -312 -254 -893 -93 -417 -174 -765 -207 -889 -22 -82
-28 -95 -35 -75 -38 121 -406 3165 -384 3186 5 5 116 -142 189 -252 71 -107
137 -187 150 -182 9 3 13 85 17 305 3 165 9 304 13 308 13 13 38 -8 99 -81 70
-82 115 -117 147 -113 36 4 79 98 145 318 31 102 73 232 93 288 l36 104 71
-69 c39 -37 124 -120 188 -183 73 -71 121 -111 127 -105 4 6 88 99 185 209
l176 199 0 626 0 626 533 532 532 533 238 2 239 3 95 215 c52 118 97 229 100
247 6 33 5 33 -28 27 -81 -16 -381 -94 -884 -231 l-540 -146 -225 -396 -225
-396 -6 -420 c-6 -392 -18 -568 -38 -588 -23 -23 -40 269 -41 683 l0 304 117
206 c162 285 266 460 334 562 l58 86 93 31 c168 55 724 214 1413 405 92 25
115 29 115 21z m-9017 -716 c11 -18 -69 -180 -297 -604 -86 -159 -156 -296
-156 -303 0 -19 49 -100 208 -342 203 -308 292 -459 292 -494 0 -7 -12 -17
-27 -21 -24 -6 -33 -1 -61 32 -84 96 -504 753 -519 811 -6 27 13 72 140 316
144 278 290 528 339 579 46 49 63 54 81 26z m10945 -36 c61 -78 276 -460 408
-725 l68 -138 -27 -56 c-90 -183 -401 -656 -497 -756 -61 -63 -69 -69 -89 -59
-11 7 -21 17 -21 23 0 21 59 116 240 389 232 348 234 352 235 454 0 96 -4 108
-132 338 -188 338 -274 527 -252 553 18 22 35 16 67 -23z m-11624 -286 c-54
-100 -148 -273 -210 -384 l-112 -201 162 -244 c90 -134 188 -287 220 -340 124
-211 101 -241 -36 -48 -97 135 -408 624 -408 640 0 14 274 506 351 628 35 57
78 120 94 140 28 34 30 35 33 14 2 -14 -34 -93 -94 -205z m12215 103 c130
-204 354 -640 354 -690 0 -34 -58 -137 -189 -338 -143 -218 -294 -418 -294
-388 0 33 135 260 323 540 l125 187 -95 167 c-122 213 -280 503 -309 566 -12
27 -20 55 -17 63 8 21 44 -17 102 -107z m-12620 -97 c-5 -14 -73 -150 -151
-302 l-141 -276 31 -61 c17 -34 76 -136 130 -226 110 -182 165 -284 160 -300
-8 -24 -291 370 -354 493 -25 50 -25 51 -9 107 24 81 133 322 200 442 69 124
112 175 131 159 9 -8 10 -17 3 -36z m13169 -156 c85 -148 171 -338 191 -420
10 -43 9 -51 -13 -95 -69 -136 -344 -517 -361 -500 -10 10 66 149 196 360 149
242 151 202 -27 554 -101 198 -135 276 -130 290 7 17 10 16 36 -14 15 -19 64
-98 108 -175z m-13538 65 c0 -10 -56 -120 -125 -245 -69 -125 -125 -231 -125
-236 0 -6 42 -77 94 -158 99 -157 169 -288 164 -305 -7 -20 -102 99 -216 271
-63 96 -115 179 -115 185 0 18 160 303 219 393 45 68 86 113 101 113 2 0 3 -8
3 -18z m13807 -14 c50 -56 277 -462 269 -483 -2 -7 -56 -91 -119 -186 -108
-166 -206 -289 -207 -261 0 25 70 151 169 301 l102 153 -84 146 c-132 230
-182 333 -170 346 11 10 19 7 40 -16z"/>
<path d="M8670 21260 c-30 -58 -59 -144 -150 -435 -45 -143 -248 -786 -452
-1428 -370 -1167 -370 -1168 -355 -1205 13 -32 261 -605 797 -1837 218 -503
437 -995 463 -1039 18 -32 34 -44 82 -63 78 -31 449 -148 1024 -323 l464 -142
326 -282 c586 -508 983 -847 986 -844 1 2 6 54 10 115 6 106 5 116 -18 166
-42 92 -168 228 -815 878 l-633 637 -557 5 c-306 3 -573 8 -592 11 -74 14 -83
17 -73 27 21 21 193 30 712 36 l543 6 574 -574 574 -574 0 375 0 375 -618 618
-617 617 -470 0 c-259 0 -481 2 -495 4 -14 2 -55 7 -92 11 -79 8 -94 20 -41
34 67 16 218 21 687 22 l459 1 639 -639 640 -638 -6 -90 c-3 -49 -6 -242 -7
-428 l-2 -337 115 -118 c63 -64 128 -139 144 -167 29 -50 29 -52 34 -245 6
-214 10 -228 72 -287 41 -39 128 -94 139 -88 31 20 349 1168 349 1261 0 39
-389 930 -722 1654 l-95 205 -204 58 c-280 79 -1342 367 -1744 472 -563 147
-645 173 -645 201 0 28 24 65 46 70 13 3 105 -15 205 -40 100 -25 188 -46 195
-46 8 0 14 7 14 16 0 42 -408 1020 -605 1449 -93 203 -193 395 -206 395 -22 0
-44 -324 -64 -910 -3 -91 -8 -203 -10 -250 -2 -47 -7 -139 -10 -205 -8 -144
-32 -369 -45 -415 -14 -48 -38 -80 -60 -80 -34 0 -43 64 -31 224 6 78 13 184
16 236 11 189 15 257 20 365 3 61 7 146 10 190 10 168 15 274 20 400 3 72 8
164 10 205 3 41 7 138 10 215 3 77 8 174 10 215 2 41 7 138 10 215 3 77 7 176
10 220 2 44 7 157 10 250 3 94 8 195 10 225 2 30 7 143 10 250 4 107 8 215 10
240 8 95 17 600 12 600 -4 0 -16 -18 -27 -40z"/>
<path d="M17377 21232 c-4 -32 -4 -125 -2 -208 8 -299 16 -540 20 -584 2 -25
6 -121 10 -215 3 -93 8 -199 10 -235 2 -36 7 -135 10 -220 3 -85 8 -175 10
-200 2 -25 7 -117 10 -205 3 -88 8 -180 10 -205 2 -25 7 -108 10 -185 3 -77 8
-169 10 -205 2 -36 7 -114 10 -175 3 -60 8 -141 10 -180 2 -38 7 -124 10 -190
3 -66 10 -208 16 -315 14 -279 13 -595 -3 -628 -32 -67 -70 -22 -83 98 -3 36
-8 76 -10 90 -3 23 -9 111 -20 335 -2 50 -7 162 -10 250 -3 88 -7 201 -10 250
-3 50 -7 158 -10 240 -13 341 -36 495 -75 495 -46 0 -100 -109 -370 -740 -291
-681 -427 -1021 -415 -1040 7 -12 113 7 245 45 172 48 205 46 184 -10 -22 -56
-333 -153 -1439 -449 -427 -114 -945 -258 -1060 -293 l-60 -19 -112 -239 c-62
-132 -208 -449 -324 -705 -117 -256 -232 -508 -257 -560 -24 -52 -69 -149 -99
-215 l-55 -120 82 -300 c45 -165 113 -415 150 -555 83 -309 118 -420 131 -420
32 0 153 85 181 128 29 43 37 87 43 247 3 83 10 166 15 186 15 57 62 118 175
228 l105 103 0 436 -1 436 639 639 c597 597 640 638 667 633 16 -3 230 -6 475
-7 484 -1 670 -13 643 -40 -21 -21 -185 -28 -631 -29 l-474 0 -619 -612 -619
-613 0 -380 0 -380 574 574 574 574 523 -6 c500 -6 692 -16 713 -37 28 -28
-147 -37 -704 -39 l-505 -1 -605 -607 c-669 -672 -785 -796 -833 -893 -30 -60
-32 -72 -31 -163 1 -111 9 -129 49 -103 14 9 229 193 478 409 790 685 802 693
1157 797 443 130 1184 361 1197 373 12 12 274 615 909 2092 l374 869 -251 796
c-340 1078 -724 2260 -733 2260 -2 0 -6 -26 -9 -58z"/>
<path d="M13011 20834 c-55 -46 -158 -223 -586 -999 -278 -504 -419 -764 -508
-934 l-90 -174 68 -131 c141 -273 578 -1060 628 -1130 l20 -28 13 23 c23 42
139 404 217 679 71 248 95 339 180 666 37 141 63 207 81 201 22 -7 78 -194
300 -999 117 -423 156 -548 171 -548 41 0 149 179 492 810 119 217 224 411
235 430 l19 36 -64 114 c-87 155 -442 796 -645 1165 -268 488 -463 825 -482
835 -14 8 -25 4 -49 -16z"/>
<path d="M11210 20260 c-89 -4 -148 -12 -173 -23 l-38 -16 32 -63 c112 -221
728 -1328 739 -1328 10 1 208 347 490 860 196 356 285 528 278 535 -3 3 -65
10 -139 15 -121 8 -265 12 -864 24 -104 2 -251 0 -325 -4z"/>
<path d="M14448 20255 c-2 -1 -131 -5 -288 -9 -324 -7 -650 -18 -650 -21 0 -5
683 -1232 716 -1286 51 -84 57 -88 97 -48 38 38 87 121 274 459 301 543 442
816 459 883 l6 28 -305 -2 c-168 -1 -307 -2 -309 -4z"/>
<path d="M13034 18539 c-30 -37 -105 -285 -263 -867 l-121 -442 121 -228 c128
-241 245 -427 269 -427 15 0 124 177 279 454 l102 181 -125 468 c-129 482
-215 785 -238 842 -11 26 -16 30 -24 19z"/>
<path d="M12600 17025 c-54 -142 -350 -1284 -350 -1350 0 -71 81 -270 316
-783 46 -100 84 -189 84 -197 0 -8 -67 -261 -149 -562 -175 -640 -224 -831
-217 -848 5 -14 206 -183 239 -202 32 -18 37 -16 52 21 13 30 61 308 115 656
11 74 27 176 35 225 7 50 39 257 69 460 121 801 224 1407 243 1439 18 28 58
-212 229 -1374 113 -771 224 -1464 236 -1476 2 -2 67 61 145 139 l141 142 -59
220 c-33 121 -115 427 -184 680 -69 253 -125 464 -125 469 0 5 74 176 164 380
188 422 246 566 246 602 0 69 -344 1341 -370 1367 -14 16 -44 -3 -76 -46 -16
-23 -72 -118 -123 -212 -146 -265 -233 -408 -241 -393 -67 126 -270 494 -297
536 -48 75 -92 132 -104 132 -5 0 -14 -11 -19 -25z"/>
<path d="M13027 15068 c-38 -152 -134 -735 -246 -1497 l-89 -603 111 -183
c123 -204 204 -318 228 -323 21 -4 98 99 239 317 l109 170 -29 203 c-36 247
-78 534 -125 853 -43 293 -120 772 -146 915 -11 58 -22 120 -26 138 -7 37 -18
42 -26 10z"/>
<path d="M13429 12813 c-18 -20 -106 -158 -264 -413 -60 -96 -114 -181 -120
-188 -10 -11 -35 21 -125 165 -143 224 -220 338 -259 383 l-31 35 -24 -29
c-32 -39 -150 -269 -229 -446 -76 -173 -90 -214 -82 -239 3 -10 54 -62 113
-114 110 -97 623 -517 632 -517 5 0 131 104 500 410 85 71 175 149 200 174
l45 46 -19 53 c-44 125 -276 638 -308 680 -13 18 -14 18 -29 0z"/>
<path d="M8524 8462 c-6 -4 -16 -16 -22 -27 -16 -32 -42 -181 -42 -247 0 -49
4 -63 25 -83 44 -45 132 -23 136 33 1 9 3 39 4 65 5 82 1 80 123 72 120 -8
128 -4 151 64 22 66 -10 85 -183 116 -95 16 -174 19 -192 7z"/>
<path d="M17311 8439 c-99 -20 -141 -39 -141 -65 0 -8 6 -30 14 -49 18 -42 42
-49 145 -43 118 7 119 6 126 -96 6 -91 33 -116 111 -102 48 10 57 37 51 161
-6 115 -19 161 -54 193 -20 18 -35 22 -91 21 -37 0 -109 -9 -161 -20z"/>
<path d="M8727 8189 c-24 -14 -34 -43 -63 -183 -37 -184 -33 -216 34 -216 64
0 89 24 122 113 12 33 31 64 45 73 13 8 60 19 104 23 98 10 113 20 109 74 -4
57 -32 74 -174 102 -134 27 -152 29 -177 14z"/>
<path d="M17167 8184 c-99 -13 -143 -29 -157 -55 -15 -28 -12 -95 5 -109 8 -7
51 -16 96 -21 44 -4 91 -15 104 -23 14 -9 33 -40 45 -73 33 -89 58 -113 122
-113 67 0 71 31 33 219 -25 125 -33 148 -61 176 -18 18 -50 18 -187 -1z"/>
<path d="M8921 7897 c-30 -15 -37 -38 -51 -178 -12 -120 -7 -170 18 -192 50
-42 102 -16 121 60 19 72 42 121 59 128 9 3 57 3 108 -1 86 -6 93 -5 103 14
17 32 13 97 -6 121 -15 18 -42 25 -153 41 -158 23 -167 24 -199 7z"/>
<path d="M16898 7886 c-79 -17 -108 -46 -108 -107 0 -67 11 -73 126 -65 116 9
124 4 150 -90 29 -109 94 -154 145 -103 20 20 21 29 16 123 -5 110 -32 199
-68 232 -17 15 -39 19 -113 21 -50 1 -117 -4 -148 -11z"/>
<path d="M9160 7623 c-31 -6 -59 -30 -72 -63 -16 -42 -38 -181 -38 -243 0 -58
0 -58 38 -74 55 -23 209 -53 274 -53 45 0 59 4 67 18 18 34 51 181 58 256 8
103 -1 113 -137 140 -83 17 -158 25 -190 19z"/>
<path d="M16706 7604 c-100 -20 -116 -33 -116 -95 0 -58 34 -236 55 -286 14
-32 16 -33 72 -33 66 0 220 30 276 53 37 16 37 16 37 75 0 76 -27 218 -47 254
-9 14 -27 31 -40 37 -32 15 -151 12 -237 -5z"/>
<path d="M11082 5613 c-197 -597 -372 -1142 -372 -1160 0 -9 6 -21 13 -27 43
-35 553 -415 724 -539 292 -212 335 -237 403 -237 71 0 86 20 296 385 l109
190 0 75 c0 125 -12 145 -603 1050 -228 349 -420 641 -427 648 -9 10 -41 -77
-143 -385z"/>
<path d="M14833 5947 c-89 -102 -490 -703 -788 -1181 -190 -307 -255 -418
-255 -439 0 -45 361 -708 399 -731 21 -14 1162 800 1178 840 3 8 -9 64 -27
122 -42 137 -447 1358 -463 1396 l-13 29 -31 -36z"/>
<path d="M13002 5266 c-41 -46 -105 -147 -182 -286 -35 -63 -139 -242 -232
-398 -92 -156 -168 -286 -168 -289 0 -9 1188 2 1197 10 11 12 -62 146 -272
506 -207 355 -286 483 -301 488 -6 2 -25 -12 -42 -31z"/>
<path d="M12278 4043 c-104 -174 -198 -344 -198 -356 0 -10 54 -16 210 -22
148 -5 404 6 417 18 3 3 -9 32 -27 64 -37 65 -291 473 -294 473 -2 0 -50 -80
-108 -177z"/>
<path d="M13603 4089 c-157 -241 -241 -393 -223 -404 6 -4 65 -10 132 -16 184
-14 426 4 444 33 11 18 -198 424 -251 486 l-21 24 -81 -123z"/>
<path d="M11990 3531 l-35 -6 85 -68 c193 -154 836 -597 962 -662 57 -30 58
-30 90 -12 39 21 701 493 898 640 l135 101 -40 8 c-22 4 -220 7 -440 7 l-400
1 -62 -98 c-62 -97 -137 -192 -153 -192 -10 0 -93 113 -155 213 l-48 77 -401
-1 c-221 -1 -417 -4 -436 -8z"/>
<path d="M8738 11654 c-54 -16 -92 -57 -109 -114 -25 -83 32 -174 125 -200 90
-25 168 5 206 80 72 141 -63 284 -222 234z"/>
<path d="M17175 11646 c-70 -30 -108 -113 -86 -186 14 -47 97 -125 151 -141
33 -10 43 -9 85 12 148 74 170 244 39 309 -47 23 -142 26 -189 6z"/>
</g>
</svg>
